# xmcd
#
# Track frame offsets:
# 150
# 10424
# 27073
# 40110
# 60407
# 79139
# 99961
# 114916
# 143725
# 163873
# 179014
# 192316
# 215994
#
# Disc length: 3125 seconds
#
#
# Revision: 0
# Processed by: cddbd v1.5.2PL0 Copyright (c) Steve Scherf et al.
# Submitted via: FreeRIP 2.70 
#
DISCID=ad0c330d
DTITLE=Max Prosa - Heimkehr (13)
DYEAR=2018
DGENRE=Alt. Rock
TTITLE0=Mein Raumschiff
TTITLE1=Solang ich darf (mit Alin Coen)
TTITLE2=Wozu, wehr)
TTITLE3=Nicht jeder Tag
TTITLE4=Helden und Diebe
TTITLE5=Schramme
TTITLE6=Die Mauern
TTITLE7=Erinnerungen
TTITLE8=Schwarzer Mond
TTITLE9=Alles schläft
TTITLE10=Drei Jahre
TTITLE11=Europa
TTITLE12=Sphäre
EXTD=
EXTT0=
EXTT1=
EXTT2=
EXTT3=
EXTT4=
EXTT5=
EXTT6=
EXTT7=
EXTT8=
EXTT9=
EXTT10=
EXTT11=
EXTT12=
PLAYORDER=
